<svg width="10" height="16" viewBox="0 0 10 16" fill="none" xmlns="http://www.w3.org/2000/svg">
<path d="M9.30533 5.71516L9.0953 13.5151C9.07741 14.1831 8.84806 14.8163 8.45593 15.2802C8.06379 15.7442 7.53975 16.0024 6.99501 16H3.00446C2.46008 16.0024 1.93634 15.7446 1.54426 15.2812C1.15218 14.8178 0.922599 14.1853 0.904174 13.5177L0.694146 5.71516C0.68955 5.54429 0.740463 5.37818 0.835683 5.25338C0.930904 5.12857 1.06263 5.05529 1.20189 5.04965C1.34115 5.04401 1.47653 5.10648 1.57825 5.22331C1.67997 5.34014 1.73969 5.50177 1.74429 5.67264L1.95432 13.4745C1.96478 13.8076 2.08002 14.1227 2.27584 14.3537C2.47165 14.5847 2.73281 14.7137 3.00446 14.7134H6.99501C7.26701 14.7136 7.52847 14.5844 7.72435 14.3528C7.92022 14.1212 8.03523 13.8055 8.04516 13.4719L8.25519 5.67264C8.25978 5.50177 8.31951 5.34014 8.42123 5.22331C8.52295 5.10648 8.65833 5.04401 8.79758 5.04965C8.93684 5.05529 9.06857 5.12857 9.16379 5.25338C9.25901 5.37818 9.30993 5.54429 9.30533 5.71516ZM10 3.11947C10 3.29034 9.94468 3.4542 9.84621 3.57503C9.74774 3.69585 9.61419 3.76372 9.47493 3.76372H0.525072C0.385814 3.76372 0.25226 3.69585 0.15379 3.57503C0.0553198 3.4542 0 3.29034 0 3.11947C0 2.9486 0.0553198 2.78474 0.15379 2.66392C0.25226 2.5431 0.385814 2.47522 0.525072 2.47522H2.1528C2.31916 2.47577 2.47975 2.40035 2.6033 2.26364C2.72685 2.12694 2.80452 1.93872 2.82121 1.73562C2.85996 1.25919 3.04188 0.817517 3.33153 0.496665C3.62118 0.175812 3.9978 -0.0012391 4.38803 6.52812e-06H5.61145C6.00167 -0.0012391 6.3783 0.175812 6.66795 0.496665C6.95759 0.817517 7.13951 1.25919 7.17826 1.73562C7.19495 1.93872 7.27263 2.12694 7.39618 2.26364C7.51973 2.40035 7.68031 2.47577 7.84668 2.47522H9.4744C9.61366 2.47522 9.74722 2.5431 9.84569 2.66392C9.94415 2.78474 9.99947 2.9486 9.99947 3.11947H10ZM3.73274 2.47522H6.26779C6.19879 2.28178 6.15366 2.0768 6.13389 1.86705C6.12089 1.70824 6.0603 1.56102 5.96387 1.4539C5.86745 1.34677 5.74205 1.28738 5.61197 1.28722H4.38855C4.25848 1.28738 4.13308 1.34677 4.03665 1.4539C3.94023 1.56102 3.87964 1.70824 3.86663 1.86705C3.8467 2.07684 3.80192 2.28181 3.73274 2.47522ZM4.26149 12.2363V6.75047C4.26149 6.5796 4.20617 6.41574 4.1077 6.29492C4.00923 6.1741 3.87567 6.10622 3.73641 6.10622C3.59716 6.10622 3.4636 6.1741 3.36513 6.29492C3.26666 6.41574 3.21134 6.5796 3.21134 6.75047V12.2388C3.21134 12.4097 3.26666 12.5736 3.36513 12.6944C3.4636 12.8152 3.59716 12.8831 3.73641 12.8831C3.87567 12.8831 4.00923 12.8152 4.1077 12.6944C4.20617 12.5736 4.26149 12.4097 4.26149 12.2388V12.2363ZM6.78918 12.2363V6.75047C6.78918 6.5796 6.73386 6.41574 6.63539 6.29492C6.53692 6.1741 6.40337 6.10622 6.26411 6.10622C6.12485 6.10622 5.9913 6.1741 5.89283 6.29492C5.79436 6.41574 5.73904 6.5796 5.73904 6.75047V12.2388C5.73904 12.4097 5.79436 12.5736 5.89283 12.6944C5.9913 12.8152 6.12485 12.8831 6.26411 12.8831C6.40337 12.8831 6.53692 12.8152 6.63539 12.6944C6.73386 12.5736 6.78918 12.4097 6.78918 12.2388V12.2363Z" fill="#D42C2C"/>
</svg>
