<svg width="16" height="21" viewBox="0 0 16 21" fill="none" xmlns="http://www.w3.org/2000/svg">
<path d="M12.37 10.803C12.2479 10.7544 12.1174 10.7303 11.9859 10.7322C11.8545 10.734 11.7247 10.7617 11.604 10.8137C11.4833 10.8657 11.374 10.941 11.2824 11.0353C11.1908 11.1295 11.1186 11.2409 11.07 11.363C11.0214 11.4851 10.9974 11.6156 10.9992 11.747C11.001 11.8785 11.0288 12.0082 11.0808 12.129C11.1328 12.2497 11.208 12.359 11.3023 12.4506C11.3965 12.5422 11.5079 12.6144 11.63 12.663C13.09 13.243 14 14.143 14 15.013C14 16.433 11.54 18.013 8 18.013C4.46 18.013 2 16.433 2 15.013C2 14.143 2.91 13.243 4.37 12.663C4.61665 12.5649 4.81422 12.3728 4.91924 12.129C5.02426 11.8852 5.02813 11.6096 4.93 11.363C4.83187 11.1163 4.63978 10.9188 4.39598 10.8137C4.15218 10.7087 3.87665 10.7049 3.63 10.803C1.36 11.703 0 13.273 0 15.013C0 17.813 3.51 20.013 8 20.013C12.49 20.013 16 17.813 16 15.013C16 13.273 14.64 11.703 12.37 10.803ZM7 7.87298V15.013C7 15.2782 7.10536 15.5326 7.29289 15.7201C7.48043 15.9076 7.73478 16.013 8 16.013C8.26522 16.013 8.51957 15.9076 8.70711 15.7201C8.89464 15.5326 9 15.2782 9 15.013V7.87298C9.94266 7.62959 10.7642 7.05075 11.3106 6.24498C11.857 5.4392 12.0908 4.4618 11.9681 3.49598C11.8454 2.53017 11.3747 1.64225 10.6442 0.998661C9.91373 0.355072 8.97357 0 8 0C7.02643 0 6.08627 0.355072 5.35577 0.998661C4.62526 1.64225 4.15456 2.53017 4.03188 3.49598C3.90921 4.4618 4.14299 5.4392 4.6894 6.24498C5.23581 7.05075 6.05734 7.62959 7 7.87298ZM8 2.01298C8.39556 2.01298 8.78224 2.13028 9.11114 2.35004C9.44004 2.56981 9.69638 2.88216 9.84776 3.24762C9.99913 3.61307 10.0387 4.0152 9.96157 4.40316C9.8844 4.79113 9.69392 5.14749 9.41421 5.4272C9.13451 5.7069 8.77814 5.89738 8.39018 5.97455C8.00222 6.05172 7.60009 6.01212 7.23463 5.86074C6.86918 5.70937 6.55682 5.45302 6.33706 5.12412C6.1173 4.79523 6 4.40855 6 4.01298C6 3.48255 6.21071 2.97384 6.58579 2.59877C6.96086 2.2237 7.46957 2.01298 8 2.01298Z" fill="#1F1818"/>
</svg>
