<svg width="12" height="12" viewBox="0 0 12 12" fill="none" xmlns="http://www.w3.org/2000/svg">
<g clip-path="url(#clip0_29_217)">
<path d="M11.1545 6.9085L9.85449 3.665C9.84203 3.63345 9.82313 3.60484 9.79899 3.581L9.08999 2.869L8.35899 0.919C8.34646 0.885687 8.32684 0.855492 8.30149 0.8305C8.04212 0.612011 7.71388 0.492189 7.37474 0.492189C7.03561 0.492189 6.70737 0.612011 6.44799 0.8305C6.40126 0.877352 6.37501 0.940823 6.37499 1.007V3.232C6.37504 3.26595 6.36817 3.29956 6.3548 3.33077C6.34143 3.36198 6.32185 3.39014 6.29724 3.41354C6.27263 3.43693 6.24351 3.45506 6.21166 3.46683C6.17981 3.47861 6.1459 3.48377 6.11199 3.482C6.02149 3.4775 5.94449 3.4755 5.87549 3.476C5.80919 3.476 5.7456 3.44966 5.69872 3.40278C5.65183 3.35589 5.62549 3.2923 5.62549 3.226V1.0075C5.62535 0.941252 5.59891 0.877771 5.55199 0.831C5.29262 0.612511 4.96438 0.492689 4.62524 0.492689C4.28611 0.492689 3.95787 0.612511 3.69849 0.831C3.67331 0.856021 3.65386 0.886218 3.64149 0.9195L2.90999 2.869L2.19999 3.581C2.17584 3.60472 2.15708 3.63337 2.14499 3.665L0.845494 6.9085C0.543669 7.23859 0.326916 7.63733 0.214028 8.07013C0.10114 8.50293 0.0955236 8.95673 0.197667 9.3922C0.29981 9.82766 0.506629 10.2316 0.800192 10.5691C1.09376 10.9066 1.4652 11.1673 1.88233 11.3288C2.29945 11.4902 2.74966 11.5475 3.19392 11.4956C3.63819 11.4438 4.06309 11.2843 4.4318 11.0311C4.80051 10.7779 5.10189 10.4386 5.30981 10.0426C5.51773 9.64654 5.62592 9.20578 5.62499 8.7585V6.2265C5.62499 6.16019 5.65133 6.09661 5.69822 6.04972C5.7451 6.00284 5.80869 5.9765 5.87499 5.9765C5.96699 5.97608 6.05895 5.98042 6.15049 5.9895C6.21237 5.99572 6.26972 6.02478 6.31132 6.071C6.35293 6.11723 6.37581 6.17731 6.37549 6.2395V8.7585C6.37457 9.20578 6.48276 9.64654 6.69068 10.0426C6.8986 10.4386 7.19998 10.7779 7.56869 11.0311C7.93739 11.2843 8.3623 11.4438 8.80656 11.4956C9.25083 11.5475 9.70104 11.4902 10.1182 11.3288C10.5353 11.1673 10.9067 10.9066 11.2003 10.5691C11.4939 10.2316 11.7007 9.82766 11.8028 9.3922C11.905 8.95673 11.8993 8.50293 11.7865 8.07013C11.6736 7.63733 11.4568 7.23859 11.155 6.9085H11.1545ZM4.62499 8.7575C4.62499 9.10362 4.52236 9.44196 4.33007 9.72975C4.13777 10.0175 3.86446 10.2418 3.54469 10.3743C3.22492 10.5067 2.87305 10.5414 2.53359 10.4739C2.19412 10.4063 1.8823 10.2397 1.63756 9.99494C1.39282 9.75019 1.22614 9.43837 1.15862 9.09891C1.0911 8.75944 1.12575 8.40757 1.2582 8.0878C1.39066 7.76803 1.61496 7.49472 1.90275 7.30243C2.19053 7.11014 2.52888 7.0075 2.87499 7.0075C3.33912 7.0075 3.78424 7.19187 4.11243 7.52006C4.44062 7.84825 4.62499 8.29337 4.62499 8.7575ZM9.12499 10.5075C8.77888 10.5075 8.44053 10.4049 8.15275 10.2126C7.86496 10.0203 7.64066 9.74697 7.5082 9.42719C7.37575 9.10742 7.3411 8.75556 7.40862 8.41609C7.47614 8.07662 7.64282 7.7648 7.88756 7.52006C8.1323 7.27532 8.44412 7.10865 8.78359 7.04112C9.12305 6.9736 9.47492 7.00826 9.79469 7.14071C10.1145 7.27316 10.3878 7.49747 10.5801 7.78525C10.7724 8.07304 10.875 8.41138 10.875 8.7575C10.875 9.22163 10.6906 9.66675 10.3624 9.99494C10.0342 10.3231 9.58912 10.5075 9.12499 10.5075Z" fill="#546679"/>
</g>
<defs>
<clipPath id="clip0_29_217">
<rect width="12" height="12" fill="white"/>
</clipPath>
</defs>
</svg>
