<svg width="12" height="12" viewBox="0 0 12 12" fill="none" xmlns="http://www.w3.org/2000/svg">
<g clip-path="url(#clip0_29_289)">
<path d="M5.707 4H7.543C7.67911 4.00018 7.81426 4.02282 7.943 4.067C7.95903 4.07254 7.97603 4.07474 7.99295 4.07347C8.00986 4.0722 8.02634 4.06749 8.04137 4.05963C8.0564 4.05176 8.06967 4.04091 8.08035 4.02773C8.09103 4.01455 8.09891 3.99933 8.1035 3.983L8.239 3.508C8.23974 3.50567 8.24121 3.50364 8.24319 3.5022C8.24517 3.50076 8.24755 3.49999 8.25 3.5C8.51522 3.5 8.76957 3.39464 8.95711 3.20711C9.14464 3.01957 9.25 2.76522 9.25 2.5V1C9.25 0.734784 9.14464 0.48043 8.95711 0.292893C8.76957 0.105357 8.51522 0 8.25 0L5 0C4.73478 0 4.48043 0.105357 4.29289 0.292893C4.10536 0.48043 4 0.734784 4 1V2.5C4 2.76522 4.10536 3.01957 4.29289 3.20711C4.48043 3.39464 4.73478 3.5 5 3.5C5.00232 3.50004 5.00455 3.50085 5.00636 3.5023C5.00817 3.50375 5.00945 3.50575 5.01 3.508L5.146 3.983C5.15051 3.99927 5.15835 4.01442 5.16903 4.0275C5.1797 4.04059 5.19297 4.05131 5.208 4.059C5.22322 4.06714 5.23996 4.07205 5.25717 4.07343C5.27437 4.0748 5.29168 4.07262 5.308 4.067C5.4364 4.02285 5.57122 4.00021 5.707 4ZM5 1.25C5 1.1837 5.02634 1.12011 5.07322 1.07322C5.12011 1.02634 5.1837 1 5.25 1H8C8.0663 1 8.12989 1.02634 8.17678 1.07322C8.22366 1.12011 8.25 1.1837 8.25 1.25V2.25C8.25 2.3163 8.22366 2.37989 8.17678 2.42678C8.12989 2.47366 8.0663 2.5 8 2.5H5.25C5.1837 2.5 5.12011 2.47366 5.07322 2.42678C5.02634 2.37989 5 2.3163 5 2.25V1.25Z" fill="#546679"/>
<path d="M6.625 10.25C7.52246 10.25 8.25 9.52246 8.25 8.625C8.25 7.72754 7.52246 7 6.625 7C5.72754 7 5 7.72754 5 8.625C5 9.52246 5.72754 10.25 6.625 10.25Z" fill="#546679"/>
<path d="M10.25 5.5H8.957C8.92415 5.50006 8.89161 5.49364 8.86123 5.48112C8.83086 5.46859 8.80326 5.4502 8.78 5.427L8.073 4.72C7.93227 4.57963 7.74177 4.50056 7.543 4.5H5.707C5.50809 4.50059 5.31745 4.57965 5.1765 4.72L4.4695 5.427C4.42265 5.47373 4.35918 5.49999 4.293 5.5H1.75C1.41848 5.5 1.10054 5.6317 0.866117 5.86612C0.631696 6.10054 0.5 6.41848 0.5 6.75V10.75C0.5 10.9142 0.532332 11.0767 0.595151 11.2284C0.657969 11.38 0.750043 11.5178 0.866117 11.6339C0.98219 11.75 1.11999 11.842 1.27165 11.9048C1.4233 11.9677 1.58585 12 1.75 12H10.25C10.4142 12 10.5767 11.9677 10.7284 11.9048C10.88 11.842 11.0178 11.75 11.1339 11.6339C11.25 11.5178 11.342 11.38 11.4048 11.2284C11.4677 11.0767 11.5 10.9142 11.5 10.75V6.75C11.5 6.41848 11.3683 6.10054 11.1339 5.86612C10.8995 5.6317 10.5815 5.5 10.25 5.5ZM3 7.375C3 7.49861 2.96334 7.61945 2.89467 7.72223C2.82599 7.82501 2.72838 7.90512 2.61418 7.95242C2.49997 7.99973 2.37431 8.01211 2.25307 7.98799C2.13183 7.96388 2.02047 7.90435 1.93306 7.81694C1.84565 7.72953 1.78612 7.61817 1.76201 7.49693C1.73789 7.37569 1.75027 7.25003 1.79758 7.13582C1.84488 7.02162 1.92499 6.92401 2.02777 6.85533C2.13055 6.78666 2.25139 6.75 2.375 6.75C2.45708 6.75 2.53835 6.76617 2.61418 6.79758C2.69001 6.82898 2.75891 6.87502 2.81694 6.93306C2.87498 6.99109 2.92102 7.05999 2.95242 7.13582C2.98383 7.21165 3 7.29292 3 7.375ZM4 8.625C4 8.10582 4.15395 7.59831 4.44239 7.16663C4.73083 6.73495 5.1408 6.3985 5.62046 6.19982C6.10011 6.00114 6.62791 5.94915 7.13711 6.05044C7.64631 6.15172 8.11404 6.40173 8.48116 6.76884C8.84827 7.13596 9.09828 7.60369 9.19956 8.11289C9.30085 8.62209 9.24886 9.14989 9.05018 9.62954C8.8515 10.1092 8.51505 10.5192 8.08337 10.8076C7.65169 11.096 7.14418 11.25 6.625 11.25C5.92905 11.2492 5.26183 10.9724 4.76972 10.4803C4.27761 9.98817 4.00079 9.32095 4 8.625Z" fill="#546679"/>
<path d="M3.5 4.75C3.5 4.55109 3.42098 4.36032 3.28033 4.21967C3.13968 4.07902 2.94891 4 2.75 4H2.25C2.05109 4 1.86032 4.07902 1.71967 4.21967C1.57902 4.36032 1.5 4.55109 1.5 4.75C1.5 4.8163 1.52634 4.87989 1.57322 4.92678C1.62011 4.97366 1.6837 5 1.75 5H3.25C3.3163 5 3.37989 4.97366 3.42678 4.92678C3.47366 4.87989 3.5 4.8163 3.5 4.75Z" fill="#546679"/>
</g>
<defs>
<clipPath id="clip0_29_289">
<rect width="12" height="12" fill="white"/>
</clipPath>
</defs>
</svg>
