<svg width="12" height="12" viewBox="0 0 12 12" fill="none" xmlns="http://www.w3.org/2000/svg">
<g clip-path="url(#clip0_29_214)">
<path d="M1.24152 5.95C1.26358 6.01192 1.29762 6.06888 1.34171 6.11762C1.38579 6.16637 1.43906 6.20595 1.49845 6.23409C1.55785 6.26223 1.62221 6.27839 1.68786 6.28163C1.7535 6.28488 1.81914 6.27515 1.88102 6.253L2.58752 6C2.64943 5.97804 2.70636 5.94402 2.75503 5.89991C2.80369 5.85579 2.84312 5.80246 2.87102 5.743C2.87871 5.72704 2.88458 5.71027 2.88852 5.693L3.06852 4.907C3.07295 4.88618 3.08264 4.86683 3.09666 4.85082C3.11069 4.83481 3.12859 4.82266 3.14866 4.81554C3.16872 4.80842 3.19027 4.80656 3.21126 4.81014C3.23224 4.81372 3.25196 4.82263 3.26852 4.836L3.90602 5.3305C3.92044 5.34153 3.93603 5.35092 3.95252 5.3585C4.01183 5.38691 4.07622 5.40319 4.14191 5.40636C4.20759 5.40954 4.27325 5.39956 4.33502 5.377L5.53152 4.9495C5.54695 4.94389 5.56333 4.9414 5.57972 4.94218C5.59612 4.94295 5.6122 4.94697 5.62702 4.954C5.64189 4.96097 5.65521 4.97084 5.6662 4.98303C5.67719 4.99522 5.68563 5.00949 5.69102 5.025L6.81952 8.1805C6.82568 8.19764 6.82803 8.21591 6.82639 8.23405C6.82474 8.25219 6.81916 8.26975 6.81002 8.2855C6.80087 8.30116 6.78845 8.31467 6.77361 8.32511C6.75877 8.33555 6.74186 8.34267 6.72402 8.346C6.18078 8.41266 5.65833 8.59579 5.19235 8.88288C4.72638 9.16998 4.32786 9.55426 4.02402 10.0095C4.01536 10.0251 4.01012 10.0423 4.00864 10.0601C4.00715 10.0778 4.00947 10.0957 4.01543 10.1125C4.02139 10.1293 4.03086 10.1446 4.0432 10.1575C4.05555 10.1703 4.07048 10.1804 4.08702 10.187C4.16387 10.2192 4.24622 10.2361 4.32952 10.237C4.50774 10.2189 4.68054 10.1653 4.83776 10.0794C4.99498 9.99358 5.13345 9.87715 5.24502 9.737C5.36322 9.58343 5.5145 9.45846 5.68762 9.37138C5.86075 9.2843 6.05126 9.23735 6.24502 9.234C6.48053 9.23401 6.71127 9.30038 6.91078 9.42552C7.11029 9.55065 7.27049 9.72948 7.37302 9.9415L7.37902 9.9525C7.42962 10.0374 7.50082 10.1082 7.58604 10.1583C7.67125 10.2083 7.76772 10.2361 7.86652 10.239C8.00236 10.2322 8.13485 10.1944 8.2539 10.1287C8.37295 10.0629 8.47542 9.97085 8.55352 9.8595C8.66113 9.67245 8.81533 9.51644 9.00112 9.40665C9.1869 9.29687 9.39794 9.23705 9.6137 9.23303C9.82946 9.229 10.0426 9.2809 10.2323 9.38367C10.4221 9.48644 10.582 9.63659 10.6965 9.8195L10.7025 9.828C10.7365 9.873 11.043 10.278 11.3365 10.233C11.506 10.2114 11.6781 10.2252 11.842 10.2735C11.8606 10.2791 11.8802 10.2803 11.8994 10.2769C11.9185 10.2735 11.9365 10.2657 11.952 10.254C11.9675 10.2423 11.9801 10.2272 11.9887 10.2098C11.9974 10.1925 12.0019 10.1734 12.002 10.154V8.5C12.002 8.4337 11.9757 8.37011 11.9288 8.32322C11.8819 8.27634 11.8183 8.25 11.752 8.25H7.99352C7.96774 8.2501 7.94257 8.24216 7.92151 8.22728C7.90045 8.2124 7.88455 8.19133 7.87602 8.167L6.63052 4.685C6.61947 4.65377 6.62127 4.61943 6.63552 4.58952C6.64977 4.55962 6.67531 4.53659 6.70652 4.5255L7.90652 4.097C7.96828 4.07485 8.02503 4.04069 8.07352 3.9965C8.12201 3.9523 8.16126 3.89894 8.18902 3.8395C8.19705 3.82368 8.20293 3.80687 8.20652 3.7895L8.38652 3.0035C8.39107 2.98276 8.40083 2.96351 8.41487 2.94758C8.42892 2.93165 8.44679 2.91957 8.46681 2.91246C8.48682 2.90536 8.50832 2.90347 8.52926 2.90698C8.55021 2.91048 8.56991 2.91927 8.58652 2.9325L9.22402 3.427C9.23838 3.43785 9.25379 3.44723 9.27002 3.455C9.32937 3.48323 9.3937 3.49948 9.45933 3.50283C9.52497 3.50617 9.59061 3.49655 9.65252 3.4745L10.3585 3.2215C10.4834 3.17686 10.5854 3.08446 10.6421 2.96463C10.6988 2.84481 10.7056 2.70735 10.661 2.5825L10.5765 2.347C10.4007 1.87232 10.0984 1.45477 9.70233 1.13953C9.30627 0.824293 8.83155 0.623367 8.32952 0.558501C7.33635 0.404169 6.32098 0.480471 5.36202 0.781501C5.3318 0.789645 5.29961 0.78615 5.27184 0.771706C5.24406 0.757263 5.22272 0.732924 5.21202 0.703501L5.07402 0.331501C5.02905 0.207023 4.93656 0.105454 4.81683 0.0490575C4.69709 -0.00733911 4.55988 -0.0139618 4.43527 0.030641C4.31066 0.0752438 4.20882 0.167433 4.15207 0.287001C4.09532 0.406568 4.08829 0.543759 4.13252 0.668501L4.26552 1.039C4.27615 1.06892 4.27504 1.10175 4.26242 1.13088C4.24981 1.16002 4.22662 1.18329 4.19752 1.196C3.26506 1.57152 2.43155 2.15662 1.76152 2.906C1.4145 3.27425 1.17479 3.73039 1.06833 4.22506C0.96187 4.71973 0.992714 5.2341 1.15752 5.7125L1.24152 5.95Z" fill="#546679"/>
<path d="M0.708483 12C-0.0415173 12 -0.00801736 11.513 0.00398264 11.4205C0.012663 11.3554 0.0340881 11.2926 0.0670337 11.2358C0.0999793 11.179 0.1438 11.1292 0.195991 11.0893C0.248182 11.0494 0.307721 11.0202 0.371206 11.0033C0.434691 10.9865 0.500877 10.9823 0.565983 10.991C1.40298 11.0995 2.15748 10.1775 2.16598 10.1685C2.2181 10.1091 2.28305 10.0623 2.35591 10.0317C2.42878 10.0011 2.50765 9.98747 2.58656 9.99186C2.66547 9.99624 2.74235 10.0185 2.81138 10.057C2.8804 10.0955 2.93977 10.1492 2.98498 10.214C3.1337 10.4375 3.33237 10.6233 3.56529 10.7568C3.7982 10.8902 4.05897 10.9677 4.32698 10.983C4.62135 10.9637 4.90832 10.8824 5.16913 10.7446C5.42994 10.6067 5.65871 10.4153 5.84048 10.183C5.89489 10.1181 5.96423 10.0674 6.04255 10.0353C6.12086 10.0031 6.20581 9.99047 6.2901 9.99839C6.3744 10.0063 6.4555 10.0346 6.52646 10.0807C6.59742 10.1269 6.65611 10.1896 6.69748 10.2635C6.81122 10.4759 6.97924 10.6544 7.18441 10.7808C7.38958 10.9072 7.62458 10.977 7.86548 10.983C8.13311 10.9765 8.39502 10.9042 8.6281 10.7726C8.86119 10.6409 9.05828 10.4539 9.20198 10.228C9.24876 10.1575 9.31199 10.0994 9.38622 10.0588C9.46045 10.0182 9.54345 9.99625 9.62805 9.99488C9.71265 9.9935 9.79632 10.0127 9.87183 10.0509C9.94734 10.0891 10.0124 10.1451 10.0615 10.214C10.066 10.2205 10.622 11.077 11.4345 10.971C11.5002 10.9609 11.5672 10.9641 11.6317 10.9802C11.6962 10.9964 11.7568 11.0252 11.81 11.0651C11.8631 11.1049 11.9079 11.155 11.9415 11.2123C11.9751 11.2696 11.997 11.3331 12.0058 11.399C12.0146 11.4649 12.0102 11.5318 11.9928 11.596C11.9754 11.6601 11.9454 11.7202 11.9046 11.7726C11.8637 11.825 11.8128 11.8688 11.7548 11.9013C11.6969 11.9338 11.633 11.9544 11.567 11.962C11.2319 12.0014 10.8922 11.9652 10.5728 11.8562C10.2535 11.7472 9.96259 11.5681 9.72148 11.332C9.69868 11.3113 9.66901 11.2999 9.63823 11.2999C9.60746 11.2999 9.57779 11.3113 9.55498 11.332C9.09207 11.7509 8.48982 11.9826 7.86548 11.982C7.56986 11.9844 7.27669 11.9282 7.00292 11.8167C6.72915 11.7051 6.4802 11.5404 6.27048 11.332C6.24871 11.3107 6.2199 11.2982 6.1895 11.2967C6.1591 11.2952 6.12921 11.3049 6.10548 11.324C5.60585 11.7415 4.97799 11.9746 4.32698 11.9845C3.68926 11.977 3.07758 11.7304 2.61298 11.2935C2.59079 11.2732 2.56197 11.2616 2.53189 11.261C2.50181 11.2603 2.47252 11.2706 2.44948 11.29C1.96833 11.7203 1.3533 11.9711 0.708483 12Z" fill="#546679"/>
</g>
<defs>
<clipPath id="clip0_29_214">
<rect width="12" height="12" fill="white"/>
</clipPath>
</defs>
</svg>
