<svg width="33" height="9" viewBox="0 0 33 9" fill="none" xmlns="http://www.w3.org/2000/svg">
<path d="M4.86551 3.97977C5.3104 4.13346 5.6744 4.38826 5.95752 4.74417C6.24872 5.092 6.39432 5.54902 6.39432 6.11525C6.39432 7.01312 6.13143 7.6562 5.60565 8.04447C5.08795 8.42465 4.45297 8.61474 3.7007 8.61474H0.582405C0.420626 8.61474 0.283113 8.55811 0.169868 8.44487C0.0566227 8.33162 0 8.19411 0 8.03233V0.703739C0 0.54196 0.0566227 0.404448 0.169868 0.291202C0.283113 0.177957 0.420626 0.121334 0.582405 0.121334H3.7007C4.43679 0.121334 4.99493 0.303336 5.37511 0.667339C5.76338 1.03134 5.95752 1.55712 5.95752 2.24469C5.95752 2.63296 5.86449 2.98078 5.67845 3.28816C5.4924 3.58745 5.22142 3.81799 4.86551 3.97977ZM4.70777 2.42669C4.70777 2.04651 4.60262 1.75935 4.3923 1.56521C4.19008 1.36299 3.90292 1.26188 3.53083 1.26188H1.23761V3.6279H3.5551C3.88674 3.61981 4.16177 3.51465 4.38017 3.31243C4.59857 3.10211 4.70777 2.80687 4.70777 2.42669ZM3.68856 7.49846C4.13346 7.49846 4.48937 7.38522 4.75631 7.15872C5.02324 6.92415 5.15671 6.57632 5.15671 6.11525C5.15671 5.21738 4.64711 4.76844 3.6279 4.76844H1.23761V7.49846H3.68856Z" fill="#2D3A4C"/>
<path d="M15.6439 4.36804C15.6439 5.18502 15.4659 5.92516 15.11 6.58845C14.7622 7.25175 14.2768 7.77753 13.654 8.1658C13.0311 8.54598 12.3274 8.73607 11.5428 8.73607C10.7582 8.73607 10.0544 8.54598 9.43156 8.1658C8.80871 7.77753 8.31933 7.25175 7.96342 6.58845C7.61559 5.92516 7.44168 5.18502 7.44168 4.36804C7.44168 3.55105 7.61559 2.81091 7.96342 2.14762C8.31933 1.48432 8.80871 0.962586 9.43156 0.582404C10.0544 0.194135 10.7582 0 11.5428 0C12.3274 0 13.0311 0.194135 13.654 0.582404C14.2768 0.962586 14.7622 1.48432 15.11 2.14762C15.4659 2.81091 15.6439 3.55105 15.6439 4.36804ZM14.3941 4.36804C14.3941 3.76136 14.2728 3.21536 14.0301 2.73002C13.7875 2.2366 13.4477 1.85237 13.0109 1.57735C12.5822 1.29423 12.0928 1.15268 11.5428 1.15268C10.9927 1.15268 10.4993 1.29019 10.0625 1.56521C9.63379 1.84024 9.2981 2.22446 9.05543 2.71789C8.81276 3.20323 8.69142 3.75328 8.69142 4.36804C8.69142 4.97471 8.81276 5.52476 9.05543 6.01818C9.2981 6.50352 9.63379 6.88774 10.0625 7.17086C10.4993 7.44588 10.9927 7.5834 11.5428 7.5834C12.0928 7.5834 12.5822 7.44588 13.0109 7.17086C13.4477 6.88774 13.7875 6.50352 14.0301 6.01818C14.2728 5.52476 14.3941 4.97471 14.3941 4.36804Z" fill="#2D3A4C"/>
<path d="M24.8861 4.36804C24.8861 5.18502 24.7082 5.92516 24.3523 6.58845C24.0044 7.25175 23.5191 7.77753 22.8963 8.1658C22.2734 8.54598 21.5697 8.73607 20.785 8.73607C20.0004 8.73607 19.2967 8.54598 18.6738 8.1658C18.051 7.77753 17.5616 7.25175 17.2057 6.58845C16.8579 5.92516 16.6839 5.18502 16.6839 4.36804C16.6839 3.55105 16.8579 2.81091 17.2057 2.14762C17.5616 1.48432 18.051 0.962586 18.6738 0.582404C19.2967 0.194135 20.0004 0 20.785 0C21.5697 0 22.2734 0.194135 22.8963 0.582404C23.5191 0.962586 24.0044 1.48432 24.3523 2.14762C24.7082 2.81091 24.8861 3.55105 24.8861 4.36804ZM23.6364 4.36804C23.6364 3.76136 23.5151 3.21536 23.2724 2.73002C23.0297 2.2366 22.69 1.85237 22.2532 1.57735C21.8245 1.29423 21.3351 1.15268 20.785 1.15268C20.235 1.15268 19.7416 1.29019 19.3048 1.56521C18.876 1.84024 18.5404 2.22446 18.2977 2.71789C18.055 3.20323 17.9337 3.75328 17.9337 4.36804C17.9337 4.97471 18.055 5.52476 18.2977 6.01818C18.5404 6.50352 18.876 6.88774 19.3048 7.17086C19.7416 7.44588 20.235 7.5834 20.785 7.5834C21.3351 7.5834 21.8245 7.44588 22.2532 7.17086C22.69 6.88774 23.0297 6.50352 23.2724 6.01818C23.5151 5.52476 23.6364 4.97471 23.6364 4.36804Z" fill="#2D3A4C"/>
<path d="M32.8665 7.63193C32.9555 7.74517 33 7.87864 33 8.03233C33 8.21029 32.9312 8.35589 32.7937 8.46914C32.6643 8.58238 32.5147 8.639 32.3448 8.639C32.183 8.639 32.0415 8.5662 31.9201 8.4206L28.9717 4.62284L27.6128 5.90898V8.0202C27.6128 8.19007 27.5561 8.33162 27.4429 8.44487C27.3296 8.55811 27.184 8.61474 27.0061 8.61474C26.8281 8.61474 26.6825 8.55811 26.5693 8.44487C26.4641 8.33162 26.4115 8.19007 26.4115 8.0202V0.703739C26.4115 0.54196 26.4682 0.404448 26.5814 0.291202C26.6947 0.177957 26.8403 0.121334 27.0182 0.121334C27.1962 0.121334 27.3377 0.177957 27.4429 0.291202C27.5561 0.396359 27.6128 0.533871 27.6128 0.703739V4.47724L31.9201 0.303336C32.0738 0.165824 32.2275 0.0970677 32.3812 0.0970677C32.5268 0.0970677 32.6522 0.157735 32.7573 0.279069C32.8625 0.400403 32.9151 0.529826 32.9151 0.667339C32.9151 0.788673 32.8584 0.914052 32.7452 1.04348L29.8696 3.76136L32.8665 7.63193Z" fill="#2D3A4C"/>
</svg>
