<svg width="12" height="12" viewBox="0 0 12 12" fill="none" xmlns="http://www.w3.org/2000/svg">
<g clip-path="url(#clip0_29_219)">
<path d="M3.469 11.377V11.3815C3.49873 11.5567 3.58969 11.7156 3.72567 11.83C3.86165 11.9444 4.03382 12.0067 4.2115 12.006H7.778C7.95679 12.0066 8.1299 11.9433 8.26614 11.8275C8.40237 11.7117 8.49275 11.551 8.521 11.3745L9.387 5.727C9.39608 5.66799 9.42597 5.61418 9.47127 5.57529C9.51657 5.53641 9.5743 5.51502 9.634 5.515H10.24C10.3726 5.515 10.4998 5.46232 10.5936 5.36855C10.6873 5.27478 10.74 5.14761 10.74 5.015C10.74 4.88239 10.6873 4.75521 10.5936 4.66145C10.4998 4.56768 10.3726 4.515 10.24 4.515H9.6625C9.60495 4.5149 9.54921 4.49494 9.50466 4.45851C9.46012 4.42207 9.42951 4.37138 9.418 4.315C9.25351 3.49285 8.79642 2.75826 8.1315 2.2475C8.08005 2.20335 8.02015 2.17013 7.95545 2.14985C7.89076 2.12957 7.82261 2.12267 7.75517 2.12955C7.68772 2.13643 7.62237 2.15696 7.5631 2.18988C7.50384 2.22281 7.45188 2.26744 7.41041 2.32107C7.36893 2.3747 7.33879 2.43621 7.32182 2.50185C7.30486 2.56749 7.30142 2.6359 7.31172 2.70291C7.32201 2.76992 7.34583 2.83414 7.38173 2.89166C7.41762 2.94918 7.46483 2.9988 7.5205 3.0375C7.9016 3.33059 8.18969 3.72775 8.35 4.181C8.36316 4.21864 8.36712 4.25889 8.36156 4.29838C8.356 4.33787 8.34107 4.37545 8.31802 4.408C8.29497 4.44054 8.26447 4.4671 8.22906 4.48545C8.19366 4.5038 8.15438 4.51342 8.1145 4.5135H6.958C6.92093 4.51351 6.88431 4.50527 6.85081 4.48938C6.81731 4.47349 6.78777 4.45035 6.76432 4.42163C6.74086 4.39292 6.72409 4.35934 6.71522 4.32335C6.70634 4.28735 6.70559 4.24983 6.713 4.2135L7.2865 1.324C7.29401 1.28633 7.31009 1.25089 7.33351 1.22045C7.35692 1.19 7.38704 1.16535 7.42152 1.14843C7.456 1.1315 7.49392 1.12275 7.53233 1.12285C7.57074 1.12295 7.60861 1.1319 7.643 1.149L9.268 1.9615C9.32703 1.99676 9.3927 2.01947 9.46091 2.0282C9.52912 2.03693 9.59839 2.0315 9.6644 2.01225C9.73041 1.99299 9.79174 1.96033 9.84456 1.9163C9.89738 1.87227 9.94055 1.81782 9.97137 1.75635C10.0022 1.69489 10.02 1.62772 10.0237 1.55906C10.0274 1.4904 10.0169 1.42171 9.9928 1.35729C9.96874 1.29288 9.93165 1.23412 9.88385 1.18469C9.83605 1.13525 9.77857 1.09621 9.715 1.07L7.797 0.110999C7.65976 0.0426794 7.50865 0.00682847 7.35534 0.0062172C7.20204 0.00560594 7.05065 0.0402507 6.91286 0.107474C6.77508 0.174698 6.6546 0.2727 6.56073 0.393907C6.46686 0.515115 6.40212 0.656282 6.3715 0.806499V0.809499L5.6765 4.3125C5.66497 4.36897 5.63429 4.41972 5.58965 4.45616C5.545 4.49261 5.48913 4.51251 5.4315 4.5125H3.8755C3.83562 4.51242 3.79634 4.5028 3.76094 4.48445C3.72553 4.4661 3.69503 4.43954 3.67198 4.407C3.64893 4.37445 3.634 4.33687 3.62844 4.29738C3.62288 4.25789 3.62684 4.21764 3.64 4.18C3.7761 3.79385 4.00515 3.44713 4.30695 3.17045C4.60874 2.89376 4.97401 2.69562 5.3705 2.5935C5.49439 2.55641 5.59909 2.47277 5.66261 2.36013C5.72614 2.24749 5.74356 2.11462 5.71121 1.98941C5.67885 1.86421 5.59925 1.7564 5.4891 1.68864C5.37896 1.62088 5.24685 1.59843 5.1205 1.626C4.48684 1.79 3.91212 2.12901 3.46206 2.60427C3.012 3.07953 2.70477 3.67185 2.5755 4.3135C2.56399 4.36988 2.53338 4.42057 2.48884 4.45701C2.4443 4.49344 2.38855 4.5134 2.331 4.5135H1.75C1.61739 4.5135 1.49021 4.56618 1.39645 4.65995C1.30268 4.75371 1.25 4.88089 1.25 5.0135C1.25 5.14611 1.30268 5.27328 1.39645 5.36705C1.49021 5.46082 1.61739 5.5135 1.75 5.5135H2.3555C2.4152 5.51352 2.47293 5.53491 2.51823 5.57379C2.56353 5.61268 2.59343 5.66649 2.6025 5.7255L3.469 11.377ZM8.119 5.5125C8.15504 5.51251 8.19064 5.52032 8.22338 5.53538C8.25612 5.55043 8.28521 5.57239 8.30867 5.59975C8.33213 5.6271 8.3494 5.6592 8.3593 5.69385C8.36919 5.7285 8.37148 5.76488 8.366 5.8005L8.212 6.8005C8.20283 6.85933 8.17297 6.91296 8.12778 6.95173C8.08259 6.99051 8.02504 7.01188 7.9655 7.012H6.477C6.44028 7.01191 6.40404 7.00373 6.37084 6.98804C6.33764 6.97236 6.30831 6.94955 6.28492 6.92125C6.26153 6.89294 6.24466 6.85983 6.23552 6.82427C6.22637 6.78871 6.22517 6.75158 6.232 6.7155L6.4235 5.7155C6.43441 5.65848 6.46483 5.60703 6.50954 5.56999C6.55424 5.53295 6.61045 5.51263 6.6685 5.5125H8.119ZM5.197 6.8085C5.18547 6.86497 5.15479 6.91572 5.11015 6.95216C5.0655 6.98861 5.00963 7.00851 4.952 7.0085H4.0255C3.96587 7.0085 3.90821 6.98718 3.86292 6.9484C3.81762 6.90961 3.78768 6.85592 3.7785 6.797L3.625 5.797C3.61953 5.76142 3.6218 5.72509 3.63167 5.69047C3.64154 5.65586 3.65876 5.62378 3.68216 5.59644C3.70557 5.56909 3.7346 5.54712 3.76728 5.53203C3.79996 5.51694 3.83551 5.50909 3.8715 5.509H5.143C5.17981 5.50901 5.21617 5.51714 5.24947 5.53282C5.28277 5.54851 5.3122 5.57135 5.33565 5.59972C5.3591 5.62809 5.376 5.66129 5.38514 5.69695C5.39427 5.73261 5.39542 5.76985 5.3885 5.806L5.197 6.8085Z" fill="#546679"/>
</g>
<defs>
<clipPath id="clip0_29_219">
<rect width="12" height="12" fill="white"/>
</clipPath>
</defs>
</svg>
