<svg width="144" height="45" viewBox="0 0 144 45" fill="none" xmlns="http://www.w3.org/2000/svg">
<path d="M24.9909 13.9799C22.6327 12.5247 19.9322 11.7587 17.1556 11.7587C14.9116 11.7587 12.6675 12.2566 10.6897 13.2523C10.6136 13.2906 10.5756 13.3289 10.4995 13.3289V5.78451C10.4995 5.63133 10.4995 5.47814 10.4995 5.36325C10.4234 3.98458 9.85289 2.7208 8.82594 1.80169C7.83703 0.920876 6.58187 0.423023 5.25064 0.46132C3.88137 0.423023 2.55014 0.959173 1.59926 1.91658C0.534279 2.91229 -0.0362488 4.32925 0.00178639 5.78451V28.1879C0.00178639 31.0984 0.76249 33.9706 2.16979 36.4982C3.53906 38.9874 5.51688 41.0554 7.95113 42.4724C10.4615 43.9277 13.2761 44.6936 16.1667 44.6553C16.2428 44.6553 16.3569 44.6553 16.433 44.6553C22.1763 44.6553 27.4632 41.5533 30.2778 36.5365C31.7231 34.0089 32.4458 31.0984 32.4077 28.1879C32.4458 25.3156 31.7611 22.4817 30.468 19.9159C29.2128 17.5032 27.311 15.4735 24.9909 13.9799ZM10.3093 28.2262V28.1496C10.2713 27.0007 10.5756 25.8135 11.1081 24.7795C11.6025 23.8604 12.3252 23.0945 13.2 22.5583C14.0748 22.0222 15.1017 21.7541 16.1667 21.7541H16.2048H16.2428C17.2697 21.7158 18.2967 21.9839 19.1715 22.52C20.0463 23.0945 20.807 23.8604 21.3395 24.7795C21.872 25.7752 22.1763 26.9241 22.1382 28.073V28.1113V28.1496C22.1382 29.3368 21.872 30.4857 21.3395 31.4814C20.8451 32.4005 20.0844 33.2047 19.2095 33.7791C18.3347 34.3153 17.3078 34.5834 16.2808 34.5451H16.2428H16.2048C15.1778 34.5451 14.1509 34.277 13.2761 33.7408C12.4012 33.2047 11.6786 32.4388 11.1841 31.5197C10.5756 30.5622 10.2713 29.4134 10.3093 28.2262Z" fill="#EA5911"/>
<path d="M57.511 13.9033C54.9626 12.4481 52.11 11.7204 49.1813 11.797C46.2906 11.7587 43.3999 12.4864 40.8516 13.9033C38.4173 15.282 36.4014 17.3117 34.9941 19.801V19.8393C33.5868 22.4051 32.9022 25.3156 32.9402 28.2645C32.9022 31.175 33.5868 34.0855 34.9941 36.6897C36.3634 39.1406 38.3793 41.1703 40.8135 42.5873C43.3619 44.0426 46.2145 44.7702 49.1432 44.6936C49.2573 44.6936 49.3714 44.6936 49.4855 44.6936C52.3001 44.6936 55.0767 43.966 57.511 42.5873C59.9452 41.2086 61.9611 39.1406 63.2923 36.6897C64.6996 34.1238 65.3842 31.2133 65.3462 28.3028C65.3842 25.3539 64.6996 22.4434 63.2923 19.8776C61.9611 17.3117 59.9452 15.282 57.511 13.9033ZM43.2858 28.3028V28.2262V28.1496C43.2478 26.9624 43.514 25.7752 44.0845 24.7029C45.0354 22.8264 47.0132 21.6775 49.1052 21.7541H49.1813H49.2573C50.3223 21.7158 51.3493 21.9839 52.3001 22.52C53.1369 23.0562 53.8596 23.7838 54.316 24.6646C55.381 26.8858 55.381 29.4899 54.316 31.7111C53.8596 32.5919 53.1749 33.2813 52.3001 33.7791L52.2621 33.8174C51.3493 34.3536 50.3223 34.6217 49.2573 34.6217H49.1813H49.1052C48.0402 34.6599 47.0132 34.3536 46.1004 33.8174C45.2256 33.3196 44.541 32.5537 44.0465 31.7111C43.514 30.6771 43.2478 29.4899 43.2858 28.3028Z" fill="#EA5911"/>
<path d="M104.066 6.32069C102.05 4.29099 99.6539 2.72084 96.9915 1.64854C94.1769 0.537946 91.1721 -0.0364989 88.1293 0.00179749C85.0864 -0.0364989 82.0817 0.537946 79.229 1.64854C76.5666 2.72084 74.2084 4.29099 72.1545 6.35899C70.1386 8.42699 68.6172 10.8397 67.5522 13.5587C66.4872 16.4309 65.9547 19.418 65.9547 22.4818C65.9547 25.5455 66.4872 28.5326 67.5522 31.4048C69.6061 36.8429 73.8661 41.1704 79.229 43.3533C82.0056 44.4638 84.9343 45 87.901 45C88.0532 45 88.1673 45 88.3194 45C91.2862 45 94.1769 44.4638 96.9915 43.3533C99.6539 42.281 102.012 40.6725 104.028 38.6428C106.082 36.5748 107.641 34.1621 108.706 31.4048C109.771 28.5326 110.304 25.5455 110.304 22.52C110.342 19.4563 109.809 16.4692 108.706 13.597C107.679 10.8014 106.12 8.3887 104.066 6.32069ZM99.0454 27.422C98.5129 28.8389 97.6761 30.141 96.6111 31.2516C95.5461 32.3622 94.329 33.243 92.8837 33.8175C91.4003 34.4685 89.8028 34.7749 88.1673 34.7366H88.1293H88.0912C86.4557 34.7749 84.8963 34.4302 83.3749 33.8175C81.9676 33.243 80.7504 32.3622 79.6855 31.2516C78.6205 30.141 77.8217 28.8389 77.2512 27.3837C76.6426 25.8135 76.3384 24.1668 76.3764 22.4818V22.4435V22.4052C76.3384 20.7201 76.6426 19.0351 77.2512 17.4649C77.8217 16.0097 78.6205 14.7076 79.6855 13.597C80.7124 12.5247 81.9295 11.6439 83.3368 11.0694C86.4177 9.84396 89.8408 9.84396 92.9217 11.0694C94.329 11.6439 95.5461 12.4864 96.5731 13.5587C97.6381 14.6693 98.4368 15.9714 99.0073 17.4266C100.186 20.6435 100.186 24.2051 99.0454 27.422Z" fill="#EA5911"/>
<path d="M143.699 6.24408C143.965 4.86542 143.661 3.48675 142.824 2.33786C142.291 1.61023 141.112 0.461337 138.83 0.461337C138.107 0.461337 137.385 0.614522 136.7 0.920893C135.939 1.26556 135.255 1.76341 134.684 2.37615L123.312 13.8268V5.86112C123.312 4.44416 122.741 3.02719 121.752 2.03149C120.763 0.997486 119.356 0.42304 117.987 0.461337C117.987 0.461337 117.987 0.461337 117.949 0.461337C116.58 0.461337 115.248 0.997485 114.259 1.99319C113.232 2.98889 112.662 4.40586 112.7 5.82282V39.064C112.662 40.5193 113.271 41.898 114.297 42.8937C115.286 43.8894 116.618 44.4638 118.025 44.4638H118.063C120.992 44.4255 123.274 42.0895 123.35 39.1406V28.3794L123.768 27.9581L134.19 42.166C135.141 43.583 136.776 44.4638 138.488 44.4638C138.526 44.4638 138.526 44.4638 138.564 44.4638C138.602 44.4638 138.64 44.4638 138.678 44.4638C140.009 44.4638 141.302 43.8894 142.177 42.8937C143.014 42.0129 143.508 40.864 143.584 39.6002C143.699 38.2981 143.356 36.9577 142.558 35.9237L131.299 20.452L142.063 9.57586C142.938 8.65675 143.508 7.46957 143.699 6.24408Z" fill="#EA5911"/>
</svg>
