<svg width="46" height="30" viewBox="0 0 46 30" fill="none" xmlns="http://www.w3.org/2000/svg">
<path d="M23 0C18.451 0 14.0042 0.879734 10.2219 2.52796C6.43956 4.17618 3.4916 6.51885 1.75078 9.25974C0.00996553 12.0006 -0.445511 15.0166 0.441949 17.9263C1.32941 20.8361 3.51995 23.5088 6.73655 25.6066C9.95316 27.7044 14.0514 29.133 18.5129 29.7118C22.9745 30.2905 27.599 29.9935 31.8017 28.8582C36.0044 27.7229 39.5965 25.8003 42.1238 23.3335C44.6511 20.8668 46 17.9667 46 15C46 13.0302 45.4051 11.0796 44.2492 9.25974C43.0934 7.43986 41.3992 5.78628 39.2635 4.3934C37.1277 3.00052 34.5922 1.89563 31.8017 1.14181C29.0112 0.387986 26.0204 0 23 0ZM23 27C19.3608 27 15.8034 26.2962 12.7775 24.9776C9.75165 23.659 7.39328 21.7849 6.00063 19.5922C4.60797 17.3995 4.24359 14.9867 4.95356 12.6589C5.66353 10.3311 7.41596 8.19295 9.98924 6.51472C12.5625 4.83649 15.8411 3.6936 19.4103 3.23058C22.9796 2.76755 26.6792 3.00519 30.0414 3.91344C33.4035 4.8217 36.2772 6.35977 38.299 8.33315C40.3209 10.3065 41.4 12.6266 41.4 15C41.4 18.1826 39.4614 21.2348 36.0108 23.4853C32.5601 25.7357 27.88 27 23 27ZM32.2 13.5H25.3V9C25.3 8.60217 25.0577 8.22064 24.6264 7.93934C24.195 7.65803 23.61 7.5 23 7.5C22.39 7.5 21.805 7.65803 21.3737 7.93934C20.9423 8.22064 20.7 8.60217 20.7 9V13.5H13.8C13.19 13.5 12.605 13.658 12.1737 13.9393C11.7423 14.2206 11.5 14.6022 11.5 15C11.5 15.3978 11.7423 15.7794 12.1737 16.0607C12.605 16.342 13.19 16.5 13.8 16.5H20.7V21C20.7 21.3978 20.9423 21.7794 21.3737 22.0607C21.805 22.342 22.39 22.5 23 22.5C23.61 22.5 24.195 22.342 24.6264 22.0607C25.0577 21.7794 25.3 21.3978 25.3 21V16.5H32.2C32.81 16.5 33.395 16.342 33.8264 16.0607C34.2577 15.7794 34.5 15.3978 34.5 15C34.5 14.6022 34.2577 14.2206 33.8264 13.9393C33.395 13.658 32.81 13.5 32.2 13.5Z" fill="#EA5911"/>
</svg>
